<?xml version="1.0" encoding="utf-8" ?>
<svg baseProfile="full" height="500px" version="1.1" width="850px" xmlns="http://www.w3.org/2000/svg" xmlns:ev="http://www.w3.org/2001/xml-events" xmlns:xlink="http://www.w3.org/1999/xlink"><defs><marker id="arrow" markerHeight="6" markerWidth="6" orient="auto" refX="5" refY="2.5"><path d="M 0 0 L 5 2.5 L 0 5 z" fill="#212121" /></marker></defs><style type="text/css"><![CDATA[text { font-family: "Helvetica", "Arial", sans-serif; }]]></style><g id="part_a"><text fill="#212121" font-size="16px" x="20px" y="30px">(a)</text><circle cx="100" cy="70" fill="#a7c7e7" r="25" /><text dy="0.3em" font-size="14px" text-anchor="middle" x="100" y="70">a(x)</text><line marker-end="url(#arrow)" stroke="#212121" stroke-width="1.5" x1="125" x2="175" y1="70" y2="70" /><circle cx="200" cy="70" fill="#ffdab9" r="25" /><text dy="0.3em" font-size="14px" text-anchor="middle" x="200" y="70">P</text><line marker-end="url(#arrow)" stroke="#212121" stroke-width="1.5" x1="225" x2="280" y1="70" y2="70" /><rect fill="white" height="40px" rx="5px" stroke="#212121" width="140px" x="280" y="50" /><text dy="0.3em" font-size="14px" text-anchor="middle" x="350" y="70">FNO-RC Layer 1</text><line marker-end="url(#arrow)" stroke="#212121" stroke-width="1.5" x1="420" x2="490" y1="70" y2="70" /><text dy="0.3em" font-size="20px" text-anchor="middle" x="500" y="70">...</text><line marker-end="url(#arrow)" stroke="#212121" stroke-width="1.5" x1="510" x2="580" y1="70" y2="70" /><rect fill="white" height="40px" rx="5px" stroke="#212121" width="140px" x="580" y="50" /><text dy="0.3em" font-size="14px" text-anchor="middle" x="650" y="70">FNO-RC Layer T</text><line marker-end="url(#arrow)" stroke="#212121" stroke-width="1.5" x1="720" x2="775" y1="70" y2="70" /><circle cx="800" cy="70" fill="#ffdab9" r="25" /><text dy="0.3em" font-size="14px" text-anchor="middle" x="800" y="70">Q</text><line marker-end="url(#arrow)" stroke="#212121" stroke-width="1.5" x1="825" x2="875" y1="70" y2="70" /></g><g id="part_b"><text fill="#212121" font-size="16px" x="20px" y="180px">(b)</text><rect fill="#fafafa" height="280px" rx="10px" stroke="#d3d3d3" stroke-width="2" width="730px" x="60px" y="185px" /><text font-size="16px" text-anchor="middle" x="425px" y="215px">Details of a Single FNO-RC Layer</text><circle cx="120" cy="325" fill="#a7c7e7" r="25" /><text dy="0.3em" font-size="14px" text-anchor="middle" x="120" y="325"><tspan>v</tspan><tspan dy="0.3em" font-size="10px">t</tspan><tspan>(x)</tspan></text><circle cx="770" cy="325" fill="#a7c7e7" r="25" /><text dy="0.3em" font-size="14px" text-anchor="middle" x="770" y="325"><tspan>v</tspan><tspan dy="0.3em" font-size="10px">t+1</tspan><tspan>(x)</tspan></text><circle cx="470" cy="290" fill="#ffdab9" r="20" /><text dy="0.3em" font-size="20px" text-anchor="middle" x="470" y="290">+</text><text font-size="12px" text-anchor="middle" x="580" y="290">Initial Prediction v'(x)</text><text font-size="12px" text-anchor="middle" x="580" y="360">Correction Field c(x)</text><circle cx="680" cy="325" fill="#ffdab9" r="20" /><text dy="0.3em" font-size="20px" text-anchor="middle" x="680" y="325">+</text><rect fill="#FFF9C4" height="50px" rx="5px" stroke="#212121" width="230px" x="200" y="225" /><circle cx="235" cy="250" fill="#ffdab9" r="20" /><text dy="0.3em" text-anchor="middle" x="235" y="250">F</text><circle cx="305" cy="250" fill="#ffdab9" r="20" /><text dy="0.3em" text-anchor="middle" x="305" y="250">R</text><circle cx="375" cy="250" fill="#ffdab9" r="20" /><text dy="0.3em" text-anchor="middle" x="375" y="250">F⁻¹</text><line marker-end="url(#arrow)" stroke="#212121" stroke-width="1.5" x1="255" x2="285" y1="250" y2="250" /><line marker-end="url(#arrow)" stroke="#212121" stroke-width="1.5" x1="325" x2="355" y1="250" y2="250" /><circle cx="305" cy="340" fill="#ffdab9" r="20" /><text dy="0.3em" text-anchor="middle" x="305" y="340">W</text><rect fill="#FFCDD2" height="50px" rx="5px" stroke="#C62828" width="230px" x="200" y="375" /><circle cx="235" cy="400" fill="#ffdab9" r="20" /><text dy="0.3em" text-anchor="middle" x="235" y="400">CFT</text><circle cx="305" cy="400" fill="#ffdab9" r="20" /><text font-size="8px" text-anchor="middle" x="305" y="395">Correction</text><text font-size="8px" text-anchor="middle" x="305" y="405">Generator (MLP)</text><line marker-end="url(#arrow)" stroke="#212121" stroke-width="1.5" x1="255" x2="285" y1="400" y2="400" /><text fill="#C62828" font-size="10px" text-anchor="middle" x="265" y="395">Predicts Error</text><path d="M 145,325 C 160,325 160,250 195,250" fill="none" marker-end="url(#arrow)" stroke="#212121" stroke-width="1.5" /><path d="M 145,325 C 200,325 225,340 285,340" fill="none" marker-end="url(#arrow)" stroke="#212121" stroke-width="1.5" /><path d="M 145,325 C 160,325 160,400 195,400" fill="none" marker-end="url(#arrow)" stroke="#212121" stroke-width="1.5" /><path d="M 430,250 C 440,250 430,290 450,290" fill="none" marker-end="url(#arrow)" stroke="#212121" stroke-width="1.5" /><path d="M 325,340 C 345,340 430,290 450,290" fill="none" marker-end="url(#arrow)" stroke="#212121" stroke-width="1.5" /><line marker-end="url(#arrow)" stroke="#212121" stroke-width="1.5" x1="490" x2="575" y1="290" y2="290" /><path d="M 430,400 C 500,400 500,360 575,360" fill="none" marker-end="url(#arrow)" stroke="#212121" stroke-width="1.5" /><line marker-end="url(#arrow)" stroke="#212121" stroke-width="1.5" x1="585" x2="660" y1="290" y2="325" /><line marker-end="url(#arrow)" stroke="#212121" stroke-width="1.5" x1="585" x2="660" y1="360" y2="325" /><line marker-end="url(#arrow)" stroke="#212121" stroke-width="1.5" x1="700" x2="745" y1="325" y2="325" /></g><line stroke="#212121" stroke-dasharray="5,5" stroke-width="1" x1="350" x2="350" y1="90" y2="185" /><line stroke="#212121" stroke-dasharray="5,5" stroke-width="1" x1="650" x2="650" y1="90" y2="185" /></svg>