<?xml version="1.0" encoding="utf-8" ?>
<svg baseProfile="full" height="450px" version="1.1" width="800px" xmlns="http://www.w3.org/2000/svg" xmlns:ev="http://www.w3.org/2001/xml-events" xmlns:xlink="http://www.w3.org/1999/xlink"><defs><marker id="arrow" markerHeight="6" markerWidth="6" orient="auto" refX="5" refY="2.5"><path d="M 0 0 L 5 2.5 L 0 5 z" fill="#212121" /></marker></defs><style type="text/css"><![CDATA[text { font-family: "Helvetica", sans-serif; }]]></style><g id="part_a"><text fill="#212121" font-size="16px" x="20px" y="30px">(a)</text><circle cx="80" cy="70" fill="#a7c7e7" r="25" /><text fill="#212121" font-size="14px" text-anchor="middle" x="80" y="75">a(x)</text><line marker-end="url(#arrow)" stroke="#212121" stroke-width="1.5" x1="105" x2="155" y1="70" y2="70" /><circle cx="180" cy="70" fill="#ffdab9" r="25" /><text fill="#212121" font-size="14px" text-anchor="middle" x="180" y="75">P</text><line marker-end="url(#arrow)" stroke="#212121" stroke-width="1.5" x1="205" x2="250" y1="70" y2="70" /><rect fill="white" height="40px" rx="5px" ry="5px" stroke="#212121" width="120px" x="250" y="50" /><text fill="#212121" font-size="14px" text-anchor="middle" x="310" y="75">FNO-RC Layer 1</text><line marker-end="url(#arrow)" stroke="#212121" stroke-width="1.5" x1="370" x2="430" y1="70" y2="70" /><text fill="#212121" font-size="20px" text-anchor="middle" x="440" y="75">...</text><line marker-end="url(#arrow)" stroke="#212121" stroke-width="1.5" x1="450" x2="510" y1="70" y2="70" /><rect fill="white" height="40px" rx="5px" ry="5px" stroke="#212121" width="120px" x="510" y="50" /><text fill="#212121" font-size="14px" text-anchor="middle" x="570" y="75">FNO-RC Layer T</text><line marker-end="url(#arrow)" stroke="#212121" stroke-width="1.5" x1="630" x2="675" y1="70" y2="70" /><circle cx="700" cy="70" fill="#ffdab9" r="25" /><text fill="#212121" font-size="14px" text-anchor="middle" x="700" y="75">Q</text><line marker-end="url(#arrow)" stroke="#212121" stroke-width="1.5" x1="725" x2="775" y1="70" y2="70" /></g><g id="part_b"><text fill="#212121" font-size="16px" x="20px" y="160px">(b)</text><rect fill="#fafafa" height="250px" rx="10px" ry="10px" stroke="#d3d3d3" stroke-width="2" width="680px" x="60px" y="165px" /><text fill="#212121" font-size="16px" text-anchor="middle" x="400px" y="195px">FNO-RC Layer</text><circle cx="120" cy="290" fill="#a7c7e7" r="25" /><text fill="#212121" font-size="14px" text-anchor="middle" x="120" y="295">v_t(x)</text><circle cx="680" cy="290" fill="#a7c7e7" r="25" /><text fill="#212121" font-size="14px" text-anchor="middle" x="680" y="295">v_t+1(x)</text><circle cx="350" cy="360" fill="#ffdab9" r="20" /><text fill="#212121" font-size="20px" text-anchor="middle" x="350" y="365">W</text><circle cx="500" cy="255" fill="#ffdab9" r="20" /><text fill="#212121" font-size="20px" text-anchor="middle" x="500" y="260">+</text><circle cx="500" cy="325" fill="#ffdab9" r="20" /><text fill="#212121" font-size="20px" text-anchor="middle" x="500" y="330">+</text><circle cx="600" cy="290" fill="#ffdab9" r="20" /><text fill="#212121" font-size="20px" text-anchor="middle" x="600" y="295">σ</text><rect fill="#FFF9C4" height="50px" rx="5px" ry="5px" stroke="#212121" width="230px" x="220" y="210" /><circle cx="255" cy="235" fill="#ffdab9" r="20" /><text fill="#212121" font-size="14px" text-anchor="middle" x="255" y="240">F</text><circle cx="325" cy="235" fill="#ffdab9" r="20" /><text fill="#212121" font-size="14px" text-anchor="middle" x="325" y="240">R</text><circle cx="395" cy="235" fill="#ffdab9" r="20" /><text fill="#212121" font-size="14px" text-anchor="middle" x="395" y="240">F⁻¹</text><line marker-end="url(#arrow)" stroke="#212121" stroke-width="1.5" x1="275" x2="305" y1="235" y2="235" /><line marker-end="url(#arrow)" stroke="#212121" stroke-width="1.5" x1="345" x2="375" y1="235" y2="235" /><rect fill="#FFCDD2" height="50px" rx="5px" ry="5px" stroke="#C62828" width="230px" x="220" y="275" /><circle cx="255" cy="300" fill="#ffdab9" r="20" /><text fill="#212121" font-size="14px" text-anchor="middle" x="255" y="305">CFT</text><circle cx="325" cy="300" fill="#ffdab9" r="20" /><text fill="#212121" font-size="14px" text-anchor="middle" x="325" y="305">C_G</text><line marker-end="url(#arrow)" stroke="#212121" stroke-width="1.5" x1="275" x2="305" y1="300" y2="300" /><text fill="#C62828" font-size="12px" text-anchor="middle" x="335" y="345">Our Contribution: Residual Correction Path</text><path d="M 145,290 C 200,290 175,235 235,235" fill="none" marker-end="url(#arrow)" stroke="#212121" stroke-width="1.5" /><path d="M 145,290 C 200,290 175,300 235,300" fill="none" marker-end="url(#arrow)" stroke="#212121" stroke-width="1.5" /><path d="M 138,308 C 200,360 270,360 330,360" fill="none" marker-end="url(#arrow)" stroke="#212121" stroke-width="1.5" /><line marker-end="url(#arrow)" stroke="#212121" stroke-width="1.5" x1="409" x2="486" y1="249" y2="241" /><line marker-end="url(#arrow)" stroke="#212121" stroke-width="1.5" x1="345" x2="480" y1="300" y2="255" /><line marker-end="url(#arrow)" stroke="#212121" stroke-width="1.5" x1="500" x2="500" y1="275" y2="305" /><line marker-end="url(#arrow)" stroke="#212121" stroke-width="1.5" x1="364" x2="486" y1="346" y2="339" /><line marker-end="url(#arrow)" stroke="#212121" stroke-width="1.5" x1="520" x2="580" y1="325" y2="290" /><line marker-end="url(#arrow)" stroke="#212121" stroke-width="1.5" x1="620" x2="655" y1="290" y2="290" /></g><line stroke="#212121" stroke-dasharray="5,5" stroke-width="1" x1="310" x2="310" y1="90" y2="165" /><line stroke="#212121" stroke-dasharray="5,5" stroke-width="1" x1="570" x2="570" y1="90" y2="165" /></svg>