<?xml version="1.0" encoding="utf-8" ?>
<svg baseProfile="full" height="520px" version="1.1" width="850px" xmlns="http://www.w3.org/2000/svg" xmlns:ev="http://www.w3.org/2001/xml-events" xmlns:xlink="http://www.w3.org/1999/xlink"><defs><marker id="arrow" markerHeight="6" markerWidth="6" orient="auto" refX="5" refY="2.5"><path d="M 0 0 L 5 2.5 L 0 5 z" fill="#212121" /></marker></defs><style type="text/css"><![CDATA[text { font-family: "Helvetica", "Arial", sans-serif; }]]></style><g id="part_a"><text fill="#212121" font-size="16px" x="20px" y="30px">(a)</text><circle cx="100" cy="70" fill="#a7c7e7" r="25" /><text dy="0.3em" font-size="14px" text-anchor="middle" x="100" y="70">a(x)</text><line marker-end="url(#arrow)" stroke="#212121" stroke-width="1.5" x1="125" x2="175" y1="70" y2="70" /><circle cx="200" cy="70" fill="#ffdab9" r="25" /><text dy="0.3em" font-size="14px" text-anchor="middle" x="200" y="70">P</text><line marker-end="url(#arrow)" stroke="#212121" stroke-width="1.5" x1="225" x2="280" y1="70" y2="70" /><rect fill="white" height="40px" rx="5px" stroke="#212121" width="140px" x="280" y="50" /><text dy="0.3em" font-size="14px" text-anchor="middle" x="350" y="70">FNO-RC Layer 1</text><line marker-end="url(#arrow)" stroke="#212121" stroke-width="1.5" x1="420" x2="490" y1="70" y2="70" /><text dy="0.3em" font-size="20px" text-anchor="middle" x="500" y="70">...</text><line marker-end="url(#arrow)" stroke="#212121" stroke-width="1.5" x1="510" x2="580" y1="70" y2="70" /><rect fill="white" height="40px" rx="5px" stroke="#212121" width="140px" x="580" y="50" /><text dy="0.3em" font-size="14px" text-anchor="middle" x="650" y="70">FNO-RC Layer T</text><line marker-end="url(#arrow)" stroke="#212121" stroke-width="1.5" x1="720" x2="775" y1="70" y2="70" /><circle cx="800" cy="70" fill="#ffdab9" r="25" /><text dy="0.3em" font-size="14px" text-anchor="middle" x="800" y="70">Q</text><line marker-end="url(#arrow)" stroke="#212121" stroke-width="1.5" x1="825" x2="875" y1="70" y2="70" /></g><g id="part_b"><text fill="#212121" font-size="16px" x="20px" y="180px">(b)</text><rect fill="#fafafa" height="300px" rx="10px" stroke="#d3d3d3" stroke-width="2" width="740px" x="55px" y="185px" /><text font-size="16px" text-anchor="middle" x="425px" y="215px">FNO-RC Layer</text><circle cx="120" cy="335" fill="#a7c7e7" r="25" /><text dy="0.3em" font-size="14px" text-anchor="middle" x="120" y="335"><tspan>v</tspan><tspan dy="0.3em" font-size="10px">t</tspan><tspan>(x)</tspan></text><circle cx="775" cy="335" fill="#a7c7e7" r="25" /><text dy="0.3em" font-size="14px" text-anchor="middle" x="775" y="335"><tspan>v</tspan><tspan dy="0.3em" font-size="10px">t+1</tspan><tspan>(x)</tspan></text><circle cx="480" cy="280" fill="#ffdab9" r="20" /><text dy="0.3em" font-size="20px" text-anchor="middle" x="480" y="280">+</text><text font-size="11px" text-anchor="middle" x="595" y="280">Initial Prediction v'(x)</text><text font-size="11px" text-anchor="middle" x="595" y="390">Correction Field c(x)</text><circle cx="695" cy="335" fill="#ffdab9" r="20" /><text dy="0.3em" font-size="20px" text-anchor="middle" x="695" y="335">+</text><rect fill="#FFF9C4" height="50px" rx="5px" stroke="#212121" width="230px" x="210" y="240" /><circle cx="245" cy="265" fill="#ffdab9" r="20" /><text dy="0.3em" font-size="14px" text-anchor="middle" x="245" y="265">F</text><circle cx="315" cy="265" fill="#ffdab9" r="20" /><text dy="0.3em" font-size="14px" text-anchor="middle" x="315" y="265">R</text><circle cx="385" cy="265" fill="#ffdab9" r="20" /><text dy="0.3em" font-size="14px" text-anchor="middle" x="385" y="265">F⁻¹</text><line marker-end="url(#arrow)" stroke="#212121" stroke-width="1.5" x1="265" x2="295" y1="265" y2="265" /><line marker-end="url(#arrow)" stroke="#212121" stroke-width="1.5" x1="335" x2="365" y1="265" y2="265" /><circle cx="315" cy="340" fill="#ffdab9" r="20" /><text dy="0.3em" font-size="14px" text-anchor="middle" x="315" y="340">W</text><rect fill="#FFCDD2" height="50px" rx="5px" stroke="#C62828" width="230px" x="210" y="400" /><circle cx="245" cy="425" fill="#ffdab9" r="20" /><text dy="0.3em" font-size="14px" text-anchor="middle" x="245" y="425">CFT</text><circle cx="315" cy="425" fill="#ffdab9" r="20" /><text font-size="9px" text-anchor="middle" x="315" y="420">Correction</text><text font-size="9px" text-anchor="middle" x="315" y="430">Generator (MLP)</text><line marker-end="url(#arrow)" stroke="#212121" stroke-width="1.5" x1="265" x2="295" y1="425" y2="425" /><text fill="#C62828" font-size="11px" text-anchor="middle" x="280" y="398">Predicts Error</text><path d="M 145,335 C 160,335 170,265 210,265" fill="none" marker-end="url(#arrow)" stroke="#212121" stroke-width="1.5" /><path d="M 145,335 C 200,335 235,340 295,340" fill="none" marker-end="url(#arrow)" stroke="#212121" stroke-width="1.5" /><path d="M 145,335 C 160,335 170,425 210,425" fill="none" marker-end="url(#arrow)" stroke="#212121" stroke-width="1.5" /><path d="M 440,265 C 450,265 440,280 460,280" fill="none" marker-end="url(#arrow)" stroke="#212121" stroke-width="1.5" /><path d="M 335,340 C 385,340 440,280 460,280" fill="none" marker-end="url(#arrow)" stroke="#212121" stroke-width="1.5" /><line marker-end="url(#arrow)" stroke="#212121" stroke-width="1.5" x1="500" x2="530" y1="280" y2="280" /><path d="M 440,425 C 490,425 495,390 530,390" fill="none" marker-end="url(#arrow)" stroke="#212121" stroke-width="1.5" /><line marker-end="url(#arrow)" stroke="#212121" stroke-width="1.5" x1="660" x2="675" y1="280" y2="335" /><line marker-end="url(#arrow)" stroke="#212121" stroke-width="1.5" x1="660" x2="675" y1="390" y2="335" /><line marker-end="url(#arrow)" stroke="#212121" stroke-width="1.5" x1="715" x2="750" y1="335" y2="335" /></g><line stroke="#212121" stroke-dasharray="5,5" stroke-width="1" x1="350" x2="350" y1="90" y2="185" /><line stroke="#212121" stroke-dasharray="5,5" stroke-width="1" x1="650" x2="650" y1="90" y2="185" /></svg>